# xmcd CD database file
#
# Track frame offsets:
#	150
#	27708
#	49856
#	73796
#	102820
#	131612
#	155863
#	185088
#	200819
#	231273
#	249918
#	273445
#	301654
#
# Disc length: 4319 seconds
#
# Revision: 0
# Processed by: cddbd v1.5.2PL0 Copyright (c) Steve Scherf et al.
# Submitted via: CDex 1.51
#
DISCID=c110dd0d
DTITLE=Jaroslav Jakubovic - Coincidence
DYEAR=2009
DGENRE=Jazz
TTITLE0=Regards
TTITLE1=Bouncing Czech Dobry
TTITLE2=Good Ol' Days
TTITLE3=Ladino Dessert
TTITLE4=Gaudeamus Igitur
TTITLE5=Say What
TTITLE6=Coincidence
TTITLE7=Times Square Lullaby
TTITLE8=Prague Spring
TTITLE9=New York Blues
TTITLE10=Walk Away
TTITLE11=Jerusalem
TTITLE12=The Truth
EXTD=YEAR: 2009
EXTT0=
EXTT1=
EXTT2=
EXTT3=
EXTT4=
EXTT5=
EXTT6=
EXTT7=
EXTT8=
EXTT9=
EXTT10=
EXTT11=
EXTT12=
PLAYORDER=
